<svg version="1.1" viewBox="0.0 0.0 170.91601049868765 100.0" fill="none" stroke="none" stroke-linecap="square" stroke-miterlimit="10" xmlns:xlink="http://www.w3.org/1999/xlink" xmlns="http://www.w3.org/2000/svg"><clipPath id="p.0"><path d="m0 0l170.91602 0l0 100.0l-170.91602 0l0 -100.0z" clip-rule="nonzero"/></clipPath><g clip-path="url(#p.0)"><path fill="#000000" fill-opacity="0.0" d="m0 0l170.91602 0l0 100.0l-170.91602 0z" fill-rule="evenodd"/><path fill="#000000" fill-opacity="0.0" d="m0 0l170.92914 0l0 100.0l-170.92914 0z" fill-rule="evenodd"/><path fill="#434343" d="m32.363556 33.399994l0 31.0l-3.71875 0l0 -31.0l3.71875 0zm23.481247 14.4375l0 16.5625l-3.71875 0l0 -2.71875q-0.875 1.15625 -2.5625 2.140625q-1.671875 0.984375 -3.796875 0.984375q-2.359375 0 -4.265625 -1.015625q-1.890625 -1.03125 -3.0 -2.984375q-1.09375 -1.96875 -1.09375 -4.6875q0 -2.71875 1.140625 -4.734375q1.140625 -2.03125 3.078125 -3.125q1.9375 -1.09375 4.296875 -1.09375q2.125 0 3.6875 0.921875q1.5625 0.90625 2.515625 2.390625l0.28125 -2.640625l3.4375 0zm-9.078125 13.875q2.046875 0 3.5 -1.125q1.46875 -1.140625 1.859375 -3.109375l0 -3.28125q-0.46875 -1.75 -2.0 -2.84375q-1.515625 -1.109375 -3.46875 -1.109375q-1.484375 0 -2.75 0.71875q-1.25 0.71875 -2.0 2.015625q-0.734375 1.296875 -0.734375 2.9375q0 1.609375 0.75 2.9375q0.765625 1.3125 2.046875 2.09375q1.28125 0.765625 2.796875 0.765625zm25.839355 -14.515625q2.328125 0 3.84375 1.390625q1.515625 1.375 1.5625 3.578125l0 12.234375l-3.765625 0l0 -10.953125q-0.078125 -1.40625 -0.84375 -2.203125q-0.75 -0.796875 -2.265625 -0.84375q-1.453125 0 -2.609375 0.796875q-1.15625 0.796875 -1.828125 2.25q-0.65625 1.4375 -0.65625 3.1875l0 7.765625l-3.71875 0l0 -31.0l3.640625 0l0 17.4375q0.921875 -1.640625 2.65625 -2.640625q1.75 -1.0 3.984375 -1.0zm16.52623 17.5625q-1.84375 0 -3.5 -0.640625q-1.65625 -0.640625 -2.703125 -1.875l1.59375 -2.15625q1.0 0.953125 2.09375 1.484375q1.109375 0.515625 2.1875 0.515625q1.328125 0 2.15625 -0.515625q0.84375 -0.53125 0.84375 -1.609375q0 -0.84375 -0.515625 -1.359375q-0.515625 -0.515625 -1.1875 -0.75q-0.65625 -0.25 -2.203125 -0.734375q-4.25 -1.359375 -4.25 -4.84375q0 -2.078125 1.53125 -3.546875q1.546875 -1.484375 4.3125 -1.484375q1.765625 0 3.125 0.4375q1.359375 0.4375 2.515625 1.40625l-1.484375 2.265625q-0.640625 -0.671875 -1.625 -1.0625q-0.96875 -0.40625 -1.859375 -0.453125q-1.109375 0 -1.921875 0.546875q-0.796875 0.53125 -0.796875 1.453125q0 0.765625 0.515625 1.265625q0.53125 0.5 1.09375 0.71875q0.5625 0.21875 2.203125 0.734375q2.03125 0.6875 3.171875 1.765625q1.140625 1.078125 1.140625 2.921875q0 2.390625 -1.6875 3.953125q-1.671875 1.5625 -4.75 1.5625z" fill-rule="nonzero"/><path fill="#1f1f1f" d="m112.452255 41.32187q0 1.8125 -0.484375 3.359375q-0.46875 1.53125 -1.390625 2.640625q-0.90625 1.109375 -2.21875 1.734375q-1.296875 0.609375 -2.9375 0.609375q-1.640625 0 -2.921875 -0.609375q-1.265625 -0.625 -2.140625 -1.734375q-0.875 -1.125 -1.328125 -2.65625q-0.453125 -1.53125 -0.453125 -3.34375l0 -2.765625q0 -1.828125 0.453125 -3.359375q0.453125 -1.53125 1.328125 -2.640625q0.875 -1.125 2.140625 -1.75q1.265625 -0.625 2.90625 -0.625q1.65625 0 2.953125 0.625q1.3125 0.625 2.21875 1.75q0.921875 1.109375 1.390625 2.640625q0.484375 1.53125 0.484375 3.359375l0 2.765625zm-3.703125 -2.796875q0 -1.15625 -0.1875 -2.125q-0.1875 -0.984375 -0.59375 -1.6875q-0.40625 -0.703125 -1.046875 -1.09375q-0.625 -0.390625 -1.515625 -0.390625q-0.890625 0 -1.484375 0.390625q-0.59375 0.390625 -0.96875 1.09375q-0.359375 0.703125 -0.515625 1.6875q-0.15625 0.96875 -0.15625 2.125l0 2.796875q0 1.140625 0.15625 2.125q0.15625 0.96875 0.515625 1.6875q0.375 0.71875 0.96875 1.125q0.59375 0.390625 1.5 0.390625q0.875 0 1.5 -0.390625q0.640625 -0.40625 1.03125 -1.109375q0.40625 -0.71875 0.59375 -1.6875q0.203125 -0.984375 0.203125 -2.140625l0 -2.796875zm18.980484 10.875l-3.640625 0l-5.28125 -12.21875l0 12.21875l-3.6875 0l0 -18.953125l3.6875 0l5.234375 12.171875l0.015625 -12.171875l3.671875 0l0 18.953125zm15.152359 -8.296875l-7.78125 0l0 5.34375l9.109375 0l0 2.953125l-12.78125 0l0 -18.953125l12.734375 0l0 2.984375l-9.0625 0l0 4.78125l7.78125 0l0 2.890625z" fill-rule="nonzero"/></g></svg>